<mxfile host="app.diagrams.net" modified="2024-07-15T17:41:15.088Z" agent="Mozilla/5.0 (Windows NT 10.0; Win64; x64) AppleWebKit/537.36 (KHTML, like Gecko) Chrome/126.0.0.0 Safari/537.36" etag="kpkQRajwaLC_T34CfvlR" version="24.6.4" type="device">
  <diagram name="Page-1" id="w5ClZPRWRFvCxjPFkPrI">
    <mxGraphModel dx="712" dy="771" grid="1" gridSize="10" guides="1" tooltips="1" connect="1" arrows="1" fold="1" page="1" pageScale="1" pageWidth="850" pageHeight="1100" math="0" shadow="0">
      <root>
        <mxCell id="0" />
        <mxCell id="1" parent="0" />
        <mxCell id="pscRUcZhTwgnnduImwL--1" value="Start" style="rounded=1;whiteSpace=wrap;html=1;" parent="1" vertex="1">
          <mxGeometry x="135" width="120" height="60" as="geometry" />
        </mxCell>
        <mxCell id="pscRUcZhTwgnnduImwL--2" value="Stop" style="rounded=1;whiteSpace=wrap;html=1;" parent="1" vertex="1">
          <mxGeometry x="570" y="607" width="120" height="60" as="geometry" />
        </mxCell>
        <mxCell id="pscRUcZhTwgnnduImwL--3" value="price: int = 0&lt;div&gt;total: int = 0&lt;/div&gt;&lt;div&gt;count: int = 0&lt;/div&gt;" style="rounded=0;whiteSpace=wrap;html=1;" parent="1" vertex="1">
          <mxGeometry x="145" y="380" width="120" height="60" as="geometry" />
        </mxCell>
        <mxCell id="pscRUcZhTwgnnduImwL--18" style="edgeStyle=orthogonalEdgeStyle;rounded=0;orthogonalLoop=1;jettySize=auto;html=1;" parent="1" source="pscRUcZhTwgnnduImwL--13" edge="1">
          <mxGeometry relative="1" as="geometry">
            <mxPoint x="355" y="560" as="targetPoint" />
            <Array as="points">
              <mxPoint x="345" y="490" />
              <mxPoint x="345" y="560" />
            </Array>
          </mxGeometry>
        </mxCell>
        <mxCell id="pscRUcZhTwgnnduImwL--13" value="while&lt;div&gt;total &amp;lt;= 1000&lt;/div&gt;" style="ellipse;whiteSpace=wrap;html=1;aspect=fixed;" parent="1" vertex="1">
          <mxGeometry x="155" y="460" width="80" height="80" as="geometry" />
        </mxCell>
        <mxCell id="pscRUcZhTwgnnduImwL--14" value="" style="endArrow=none;html=1;rounded=0;" parent="1" edge="1">
          <mxGeometry width="50" height="50" relative="1" as="geometry">
            <mxPoint x="167.5" y="730" as="sourcePoint" />
            <mxPoint x="237.5" y="730" as="targetPoint" />
          </mxGeometry>
        </mxCell>
        <mxCell id="pscRUcZhTwgnnduImwL--15" value="" style="endArrow=none;html=1;rounded=0;" parent="1" edge="1">
          <mxGeometry width="50" height="50" relative="1" as="geometry">
            <mxPoint x="142.5" y="740" as="sourcePoint" />
            <mxPoint x="247.5" y="740" as="targetPoint" />
          </mxGeometry>
        </mxCell>
        <mxCell id="pscRUcZhTwgnnduImwL--16" value="" style="endArrow=classic;html=1;rounded=0;" parent="1" edge="1">
          <mxGeometry width="50" height="50" relative="1" as="geometry">
            <mxPoint x="202.16" y="690" as="sourcePoint" />
            <mxPoint x="202.16" y="720" as="targetPoint" />
          </mxGeometry>
        </mxCell>
        <mxCell id="pscRUcZhTwgnnduImwL--19" value="print(total, diff, count)" style="shape=document;whiteSpace=wrap;html=1;boundedLbl=1;" parent="1" vertex="1">
          <mxGeometry x="360" y="607" width="120" height="70" as="geometry" />
        </mxCell>
        <mxCell id="pscRUcZhTwgnnduImwL--23" value="input price" style="shape=card;whiteSpace=wrap;html=1;" parent="1" vertex="1">
          <mxGeometry x="150" y="560" width="90" height="40" as="geometry" />
        </mxCell>
        <mxCell id="pscRUcZhTwgnnduImwL--24" value="diff: int = total - 1,000" style="rounded=0;whiteSpace=wrap;html=1;" parent="1" vertex="1">
          <mxGeometry x="360" y="510" width="150" height="80" as="geometry" />
        </mxCell>
        <mxCell id="pscRUcZhTwgnnduImwL--25" value="total = total + price&lt;div&gt;count = count + 1&lt;/div&gt;" style="rounded=0;whiteSpace=wrap;html=1;" parent="1" vertex="1">
          <mxGeometry x="140" y="637" width="120" height="40" as="geometry" />
        </mxCell>
        <mxCell id="MamxkBV5SSjO4Z8ue6o8-2" value="x: int = 1" style="rounded=0;whiteSpace=wrap;html=1;" vertex="1" parent="1">
          <mxGeometry x="130" y="70" width="120" height="60" as="geometry" />
        </mxCell>
        <mxCell id="MamxkBV5SSjO4Z8ue6o8-3" value="x = x + 1" style="rounded=0;whiteSpace=wrap;html=1;" vertex="1" parent="1">
          <mxGeometry x="135" y="287" width="120" height="60" as="geometry" />
        </mxCell>
        <mxCell id="MamxkBV5SSjO4Z8ue6o8-4" value="print(x)" style="shape=document;whiteSpace=wrap;html=1;boundedLbl=1;" vertex="1" parent="1">
          <mxGeometry x="145" y="220" width="90" height="60" as="geometry" />
        </mxCell>
        <mxCell id="MamxkBV5SSjO4Z8ue6o8-5" value="" style="edgeStyle=orthogonalEdgeStyle;rounded=0;orthogonalLoop=1;jettySize=auto;html=1;" edge="1" parent="1" source="MamxkBV5SSjO4Z8ue6o8-6" target="MamxkBV5SSjO4Z8ue6o8-4">
          <mxGeometry relative="1" as="geometry" />
        </mxCell>
        <mxCell id="MamxkBV5SSjO4Z8ue6o8-13" style="edgeStyle=orthogonalEdgeStyle;rounded=0;orthogonalLoop=1;jettySize=auto;html=1;" edge="1" parent="1" source="MamxkBV5SSjO4Z8ue6o8-6" target="pscRUcZhTwgnnduImwL--2">
          <mxGeometry relative="1" as="geometry" />
        </mxCell>
        <mxCell id="MamxkBV5SSjO4Z8ue6o8-6" value="while x &amp;lt; 11" style="ellipse;whiteSpace=wrap;html=1;aspect=fixed;" vertex="1" parent="1">
          <mxGeometry x="150" y="120" width="80" height="80" as="geometry" />
        </mxCell>
        <mxCell id="MamxkBV5SSjO4Z8ue6o8-10" value="" style="endArrow=none;html=1;rounded=0;" edge="1" parent="1">
          <mxGeometry width="50" height="50" relative="1" as="geometry">
            <mxPoint x="398" y="717" as="sourcePoint" />
            <mxPoint x="468" y="717" as="targetPoint" />
          </mxGeometry>
        </mxCell>
        <mxCell id="MamxkBV5SSjO4Z8ue6o8-11" value="" style="endArrow=none;html=1;rounded=0;" edge="1" parent="1">
          <mxGeometry width="50" height="50" relative="1" as="geometry">
            <mxPoint x="373" y="727" as="sourcePoint" />
            <mxPoint x="478" y="727" as="targetPoint" />
          </mxGeometry>
        </mxCell>
        <mxCell id="MamxkBV5SSjO4Z8ue6o8-12" value="" style="endArrow=classic;html=1;rounded=0;" edge="1" parent="1">
          <mxGeometry width="50" height="50" relative="1" as="geometry">
            <mxPoint x="432.65999999999997" y="677" as="sourcePoint" />
            <mxPoint x="432.65999999999997" y="707" as="targetPoint" />
          </mxGeometry>
        </mxCell>
      </root>
    </mxGraphModel>
  </diagram>
</mxfile>
